<?xml version="1.0" standalone="no"?>
<!DOCTYPE svg PUBLIC "-//W3C//DTD SVG 20010904//EN"
 "http://www.w3.org/TR/2001/REC-SVG-20010904/DTD/svg10.dtd">
<svg version="1.0" xmlns="http://www.w3.org/2000/svg"
 width="512.000000pt" height="512.000000pt" viewBox="0 0 512.000000 512.000000"
 preserveAspectRatio="xMidYMid meet">

<g transform="translate(0.000000,512.000000) scale(0.100000,-0.100000)"
fill="#000000" stroke="none">
<path d="M2410 4961 l0 -158 -82 -7 c-110 -9 -299 -48 -423 -86 -565 -174
-1029 -554 -1321 -1081 -134 -243 -238 -576 -260 -836 l-7 -83 -158 0 -159 0
0 -150 0 -150 159 0 158 0 7 -82 c10 -114 48 -301 90 -433 222 -711 779 -1266
1491 -1485 124 -38 313 -77 423 -86 l82 -7 0 -158 0 -159 150 0 150 0 0 159 0
158 83 7 c109 9 298 48 422 86 565 174 1029 554 1321 1081 134 243 238 576
260 837 l7 82 158 0 159 0 0 150 0 150 -159 0 -158 0 -7 83 c-10 113 -48 300
-90 432 -222 711 -779 1266 -1491 1485 -124 38 -313 77 -422 86 l-83 7 0 158
0 159 -150 0 -150 0 0 -159z m0 -760 l0 -300 -47 -6 c-129 -18 -292 -71 -421
-137 -381 -197 -659 -586 -717 -1000 l-6 -48 -301 0 -301 0 7 73 c21 212 107
490 214 687 284 525 760 881 1337 999 110 23 142 27 198 30 l37 1 0 -299z
m540 268 c460 -98 849 -338 1141 -706 219 -275 373 -648 405 -980 l7 -73 -301
0 -301 0 -6 48 c-58 414 -336 803 -717 1000 -129 66 -292 119 -420 137 l-48 6
0 301 0 301 73 -7 c39 -4 115 -16 167 -27z m-540 -1014 l0 -145 150 0 150 0 0
145 0 145 33 -6 c268 -46 535 -222 689 -455 77 -116 140 -270 162 -396 l6 -33
-145 0 -145 0 0 -150 0 -150 145 0 145 0 -6 -32 c-46 -269 -222 -536 -455
-690 -116 -77 -270 -140 -396 -162 l-33 -5 0 144 0 145 -150 0 -150 0 0 -145
0 -144 -32 5 c-269 46 -536 222 -690 455 -77 116 -140 270 -162 397 l-5 32
144 0 145 0 0 150 0 150 -145 0 -144 0 5 33 c22 126 85 280 162 396 159 241
436 419 715 460 4 1 7 -64 7 -144z m-1185 -1092 c18 -129 71 -292 137 -421
197 -381 586 -659 1001 -717 l47 -6 0 -301 0 -301 -72 7 c-40 4 -116 16 -168
27 -578 123 -1049 476 -1332 999 -107 197 -193 475 -214 688 l-7 72 301 0 301
0 6 -47z m3271 -25 c-21 -213 -107 -491 -214 -688 -283 -523 -754 -876 -1332
-999 -52 -11 -128 -23 -167 -27 l-73 -7 0 301 0 301 48 6 c128 18 291 71 420
137 381 197 659 586 717 1001 l6 47 301 0 301 0 -7 -72z"/>
<path d="M2471 2999 c-227 -44 -391 -278 -353 -505 32 -196 180 -344 376 -376
289 -48 556 219 508 508 -42 255 -281 422 -531 373z"/>
</g>
</svg>
